<svg xmlns="http://www.w3.org/2000/svg" viewBox="0 0 512 512" role="img" aria-label="The Vibe Upgrade — Smart Finds, Cozy Spaces, Better Vibes"><circle cx="256" cy="256" r="252" fill="#DD5F17"/><path d="M487.1,256.0 L488.7,262.1 L489.8,268.3 L490.4,274.4 L490.5,280.6 L490.0,286.8 L488.9,292.9 L487.2,298.8 L484.9,304.7 L482.2,310.3 L479.1,315.8 L475.8,321.1 L472.2,326.2 L468.5,331.3 L464.9,336.2 L461.4,341.1 L458.0,345.9 L454.9,350.9 L452.0,355.9 L449.4,361.0 L447.1,366.3 L444.9,371.8 L442.9,377.4 L441.0,383.1 L439.0,389.0 L436.9,394.8 L434.7,400.7 L432.2,406.5 L429.3,412.1 L426.1,417.4 L422.5,422.5 L418.4,427.1 L413.9,431.4 L409.0,435.1 L403.8,438.5 L398.2,441.3 L392.4,443.8 L386.5,445.9 L380.5,447.7 L374.4,449.3 L368.4,450.8 L362.5,452.2 L356.7,453.7 L351.1,455.3 L345.6,457.2 L340.2,459.3 L334.9,461.6 L329.7,464.2 L324.6,467.1 L319.4,470.1 L314.2,473.3 L308.9,476.5 L303.5,479.7 L298.0,482.7 L292.3,485.4 L286.5,487.7 L280.5,489.6 L274.5,490.9 L268.4,491.7 L262.2,491.8 L256.0,491.4 L249.9,490.4 L243.8,488.8 L237.8,486.9 L232.0,484.6 L226.2,482.0 L220.6,479.3 L215.1,476.6 L209.7,473.9 L204.3,471.4 L198.9,469.1 L193.5,467.0 L188.0,465.3 L182.4,463.8 L176.7,462.5 L170.9,461.5 L164.9,460.5 L158.9,459.6 L152.7,458.6 L146.6,457.5 L140.4,456.2 L134.4,454.5 L128.5,452.4 L122.8,449.8 L117.4,446.8 L112.3,443.2 L107.6,439.2 L103.3,434.8 L99.4,429.9 L95.9,424.8 L92.7,419.3 L89.7,413.8 L87.1,408.1 L84.5,402.4 L82.1,396.8 L79.6,391.3 L77.1,386.0 L74.4,380.8 L71.5,375.8 L68.3,371.0 L64.9,366.3 L61.3,361.7 L57.4,357.2 L53.4,352.6 L49.4,348.0 L45.3,343.3 L41.3,338.4 L37.6,333.3 L34.2,328.1 L31.2,322.6 L28.6,316.9 L26.6,311.1 L25.2,305.1 L24.4,298.9 L24.1,292.7 L24.4,286.5 L25.1,280.3 L26.3,274.1 L27.7,268.0 L29.4,261.9 L31.1,256.0 L32.8,250.2 L34.4,244.4 L35.8,238.7 L37.0,233.0 L37.9,227.3 L38.5,221.5 L38.8,215.7 L38.9,209.9 L38.8,203.9 L38.7,197.8 L38.5,191.6 L38.5,185.3 L38.7,179.0 L39.2,172.8 L40.1,166.6 L41.5,160.5 L43.3,154.6 L45.7,148.9 L48.7,143.4 L52.2,138.3 L56.1,133.5 L60.5,129.0 L65.1,124.8 L70.1,120.9 L75.2,117.2 L80.3,113.7 L85.4,110.3 L90.5,106.9 L95.3,103.5 L100.0,100.0 L104.5,96.4 L108.8,92.5 L112.9,88.4 L116.8,84.1 L120.6,79.6 L124.4,74.9 L128.2,70.1 L132.1,65.3 L136.2,60.5 L140.4,55.8 L144.9,51.5 L149.7,47.4 L154.8,43.8 L160.1,40.6 L165.7,38.0 L171.5,35.9 L177.5,34.4 L183.7,33.4 L189.9,32.9 L196.2,32.9 L202.5,33.1 L208.7,33.7 L214.9,34.3 L221.0,35.0 L227.0,35.6 L232.9,36.1 L238.7,36.3 L244.5,36.3 L250.2,36.0 L256.0,35.4 L261.8,34.5 L267.7,33.5 L273.6,32.3 L279.6,31.0 L285.8,29.9 L292.0,28.9 L298.2,28.2 L304.5,27.9 L310.7,28.0 L316.9,28.6 L323.0,29.8 L328.9,31.6 L334.6,33.9 L340.1,36.8 L345.4,40.2 L350.4,43.9 L355.2,48.0 L359.8,52.3 L364.2,56.8 L368.4,61.2 L372.6,65.6 L376.8,69.9 L381.1,74.0 L385.4,77.8 L389.9,81.5 L394.6,84.8 L399.5,88.0 L404.5,91.1 L409.7,94.0 L415.1,96.9 L420.5,99.9 L425.9,103.0 L431.3,106.3 L436.5,109.9 L441.4,113.7 L446.0,118.0 L450.2,122.5 L453.9,127.5 L457.1,132.7 L459.8,138.3 L462.0,144.1 L463.7,150.2 L465.0,156.3 L465.9,162.5 L466.6,168.8 L467.1,175.0 L467.4,181.1 L467.9,187.2 L468.4,193.1 L469.1,198.9 L470.0,204.6 L471.2,210.3 L472.7,215.8 L474.5,221.4 L476.5,227.0 L478.6,232.6 L480.9,238.3 L483.1,244.1 L485.2,250.0 L487.1,256.0 Z" fill="#F0913A"/><path d="M477.1,256.0 L477.7,261.8 L477.7,267.6 L477.1,273.4 L475.9,279.1 L474.2,284.7 L472.0,290.2 L469.4,295.6 L466.5,300.8 L463.5,305.8 L460.3,310.7 L457.2,315.6 L454.1,320.4 L451.3,325.2 L448.7,330.0 L446.3,334.8 L444.3,339.8 L442.5,344.9 L440.9,350.2 L439.5,355.6 L438.2,361.2 L436.9,366.8 L435.5,372.6 L433.9,378.3 L432.1,383.9 L429.9,389.4 L427.3,394.7 L424.3,399.8 L420.9,404.5 L417.0,408.8 L412.7,412.7 L408.0,416.2 L403.0,419.2 L397.7,421.9 L392.2,424.2 L386.7,426.3 L381.0,428.1 L375.5,429.8 L370.0,431.5 L364.6,433.3 L359.4,435.2 L354.4,437.2 L349.5,439.5 L344.8,442.1 L340.1,445.0 L335.6,448.1 L331.0,451.4 L326.4,454.8 L321.7,458.3 L317.0,461.8 L312.0,465.1 L306.9,468.2 L301.7,470.9 L296.2,473.1 L290.7,474.9 L285.0,476.1 L279.2,476.7 L273.4,476.7 L267.5,476.2 L261.7,475.1 L256.0,473.6 L250.3,471.8 L244.8,469.7 L239.4,467.5 L234.0,465.2 L228.7,463.0 L223.5,461.0 L218.3,459.1 L213.1,457.6 L207.9,456.3 L202.6,455.4 L197.2,454.6 L191.6,454.1 L186.0,453.8 L180.2,453.5 L174.3,453.1 L168.4,452.6 L162.6,451.9 L156.7,450.9 L151.0,449.4 L145.4,447.5 L140.1,445.1 L135.1,442.2 L130.4,438.8 L126.0,434.9 L122.0,430.6 L118.4,426.0 L115.0,421.1 L112.0,416.0 L109.1,410.8 L106.4,405.6 L103.8,400.4 L101.2,395.4 L98.5,390.6 L95.6,385.9 L92.5,381.4 L89.3,377.1 L85.7,373.0 L82.0,369.0 L78.0,365.1 L73.8,361.2 L69.6,357.2 L65.3,353.2 L61.2,348.9 L57.2,344.5 L53.5,339.9 L50.2,335.0 L47.3,329.9 L45.0,324.6 L43.2,319.0 L41.9,313.4 L41.3,307.5 L41.1,301.7 L41.5,295.8 L42.2,289.9 L43.2,284.0 L44.4,278.2 L45.7,272.5 L47.0,267.0 L48.2,261.4 L49.1,256.0 L49.9,250.6 L50.3,245.2 L50.4,239.8 L50.3,234.4 L49.9,228.9 L49.3,223.3 L48.6,217.6 L47.9,211.8 L47.3,205.9 L46.9,200.0 L46.8,194.0 L47.1,188.1 L47.8,182.3 L49.1,176.6 L50.9,171.1 L53.3,165.7 L56.2,160.7 L59.6,155.9 L63.4,151.4 L67.5,147.2 L71.9,143.2 L76.5,139.4 L81.2,135.8 L85.8,132.4 L90.3,128.9 L94.7,125.4 L98.9,121.8 L102.8,118.1 L106.6,114.2 L110.1,110.1 L113.4,105.7 L116.6,101.2 L119.7,96.4 L122.9,91.6 L126.1,86.7 L129.5,81.9 L133.1,77.1 L136.9,72.6 L141.0,68.3 L145.4,64.5 L150.2,61.1 L155.2,58.2 L160.5,55.8 L166.1,54.0 L171.8,52.7 L177.6,51.8 L183.5,51.4 L189.5,51.3 L195.4,51.4 L201.3,51.7 L207.0,52.0 L212.7,52.2 L218.2,52.3 L223.7,52.2 L229.1,51.7 L234.5,51.0 L239.8,50.0 L245.1,48.8 L250.5,47.3 L256.0,45.6 L261.6,43.9 L267.2,42.3 L272.9,40.8 L278.7,39.6 L284.6,38.7 L290.5,38.2 L296.3,38.3 L302.1,38.9 L307.8,40.2 L313.4,41.9 L318.7,44.3 L323.9,47.1 L328.8,50.3 L333.6,53.9 L338.1,57.7 L342.5,61.6 L346.8,65.6 L351.0,69.5 L355.2,73.3 L359.4,76.8 L363.7,80.2 L368.2,83.2 L372.8,86.0 L377.6,88.6 L382.6,91.0 L387.7,93.3 L393.0,95.6 L398.4,97.9 L403.7,100.3 L409.1,102.9 L414.3,105.8 L419.2,109.0 L423.9,112.6 L428.2,116.5 L432.1,120.9 L435.5,125.6 L438.5,130.6 L440.9,135.9 L442.9,141.5 L444.5,147.2 L445.7,153.0 L446.7,158.8 L447.5,164.7 L448.2,170.4 L448.9,176.1 L449.7,181.6 L450.8,187.0 L452.0,192.3 L453.5,197.5 L455.4,202.6 L457.5,207.6 L459.8,212.7 L462.3,217.8 L464.9,222.9 L467.6,228.1 L470.1,233.5 L472.4,239.0 L474.4,244.6 L476.0,250.2 L477.1,256.0 Z" fill="#F6B04F"/><path d="M466.6,256.0 L465.7,261.5 L464.3,266.9 L462.4,272.2 L460.2,277.5 L457.8,282.6 L455.1,287.5 L452.5,292.4 L449.9,297.2 L447.4,302.0 L445.1,306.7 L443.2,311.4 L441.5,316.3 L440.1,321.2 L438.9,326.2 L438.0,331.4 L437.2,336.7 L436.6,342.1 L435.9,347.6 L435.1,353.2 L434.0,358.8 L432.7,364.3 L431.1,369.7 L429.0,374.9 L426.4,379.8 L423.4,384.4 L419.9,388.7 L415.9,392.6 L411.6,396.1 L407.0,399.2 L402.0,402.0 L396.9,404.5 L391.8,406.8 L386.5,408.9 L381.4,410.9 L376.4,412.9 L371.5,414.9 L366.8,417.2 L362.2,419.6 L357.9,422.3 L353.7,425.2 L349.6,428.5 L345.6,431.9 L341.6,435.5 L337.6,439.3 L333.5,443.1 L329.2,446.8 L324.8,450.3 L320.2,453.6 L315.4,456.5 L310.4,459.0 L305.2,461.0 L299.9,462.4 L294.4,463.2 L288.9,463.5 L283.3,463.2 L277.7,462.5 L272.2,461.3 L266.7,459.9 L261.3,458.2 L256.0,456.4 L250.8,454.6 L245.7,453.0 L240.6,451.5 L235.6,450.3 L230.5,449.3 L225.5,448.7 L220.3,448.4 L215.1,448.3 L209.8,448.4 L204.4,448.7 L198.8,449.0 L193.2,449.2 L187.6,449.2 L181.9,449.0 L176.3,448.4 L170.8,447.4 L165.4,445.9 L160.2,443.9 L155.3,441.4 L150.7,438.4 L146.4,434.8 L142.4,430.9 L138.7,426.7 L135.3,422.1 L132.1,417.5 L129.1,412.7 L126.2,408.0 L123.4,403.3 L120.5,398.8 L117.5,394.5 L114.4,390.4 L111.1,386.5 L107.5,382.8 L103.7,379.3 L99.7,375.9 L95.5,372.6 L91.1,369.3 L86.7,365.9 L82.3,362.5 L78.0,358.8 L73.8,354.9 L70.0,350.8 L66.6,346.4 L63.6,341.7 L61.1,336.7 L59.1,331.6 L57.7,326.2 L56.8,320.7 L56.5,315.1 L56.5,309.5 L56.9,303.8 L57.6,298.2 L58.4,292.6 L59.2,287.2 L60.0,281.8 L60.6,276.5 L61.0,271.3 L61.2,266.2 L61.0,261.1 L60.6,256.0 L59.8,250.9 L58.8,245.7 L57.7,240.4 L56.5,235.0 L55.2,229.6 L54.1,224.0 L53.3,218.4 L52.7,212.8 L52.6,207.2 L53.0,201.6 L53.9,196.1 L55.3,190.8 L57.3,185.7 L59.9,180.7 L62.9,176.0 L66.3,171.6 L70.1,167.3 L74.1,163.3 L78.3,159.5 L82.4,155.8 L86.6,152.2 L90.6,148.6 L94.4,144.9 L98.0,141.2 L101.3,137.3 L104.4,133.2 L107.2,128.9 L109.9,124.4 L112.5,119.8 L114.9,114.9 L117.5,110.0 L120.1,105.1 L122.9,100.1 L125.9,95.3 L129.2,90.8 L132.8,86.5 L136.8,82.6 L141.1,79.1 L145.8,76.1 L150.7,73.6 L155.9,71.7 L161.3,70.2 L166.9,69.1 L172.5,68.4 L178.1,68.0 L183.7,67.8 L189.3,67.6 L194.8,67.5 L200.1,67.3 L205.3,66.9 L210.4,66.2 L215.5,65.3 L220.4,64.0 L225.4,62.5 L230.3,60.7 L235.3,58.7 L240.3,56.6 L245.4,54.4 L250.7,52.3 L256.0,50.4 L261.4,48.8 L266.9,47.5 L272.5,46.8 L278.0,46.5 L283.5,46.8 L289.0,47.7 L294.3,49.2 L299.5,51.2 L304.6,53.6 L309.5,56.5 L314.2,59.7 L318.7,63.0 L323.1,66.5 L327.4,70.0 L331.7,73.3 L335.9,76.5 L340.2,79.5 L344.6,82.2 L349.1,84.6 L353.7,86.8 L358.5,88.7 L363.5,90.4 L368.7,92.1 L373.9,93.7 L379.3,95.4 L384.6,97.2 L389.9,99.2 L395.0,101.6 L400.0,104.3 L404.6,107.4 L408.9,110.9 L412.8,114.8 L416.3,119.1 L419.3,123.8 L421.8,128.8 L424.0,134.0 L425.7,139.3 L427.2,144.8 L428.4,150.3 L429.6,155.8 L430.6,161.2 L431.8,166.4 L433.0,171.6 L434.5,176.5 L436.2,181.4 L438.2,186.1 L440.4,190.7 L443.0,195.2 L445.7,199.8 L448.7,204.4 L451.7,209.0 L454.7,213.8 L457.6,218.6 L460.2,223.7 L462.5,228.8 L464.4,234.1 L465.8,239.5 L466.6,245.0 L466.9,250.5 L466.6,256.0 Z" fill="#F2ABA0"/><path d="M454.4,256.0 L452.7,261.2 L450.6,266.2 L448.2,271.1 L445.6,275.9 L443.0,280.6 L440.5,285.2 L438.1,289.7 L436.0,294.3 L434.2,298.8 L432.8,303.4 L431.7,308.0 L431.0,312.8 L430.5,317.8 L430.3,322.9 L430.2,328.1 L430.1,333.5 L429.9,338.9 L429.5,344.4 L428.8,349.8 L427.8,355.2 L426.2,360.3 L424.2,365.2 L421.6,369.8 L418.5,374.1 L414.9,378.0 L410.9,381.4 L406.5,384.5 L401.8,387.2 L396.8,389.6 L391.8,391.8 L386.8,393.8 L381.8,395.7 L376.9,397.6 L372.3,399.6 L367.8,401.7 L363.6,404.1 L359.7,406.8 L355.9,409.8 L352.3,413.1 L348.8,416.7 L345.3,420.6 L341.9,424.5 L338.3,428.6 L334.6,432.6 L330.8,436.5 L326.7,440.1 L322.4,443.4 L317.8,446.2 L313.0,448.5 L308.0,450.2 L302.9,451.2 L297.6,451.7 L292.2,451.5 L286.9,450.9 L281.5,449.8 L276.2,448.4 L271.0,446.8 L265.9,445.0 L260.9,443.3 L256.0,441.7 L251.2,440.3 L246.4,439.2 L241.6,438.5 L236.9,438.1 L232.0,438.1 L227.1,438.4 L222.1,439.0 L216.9,439.8 L211.7,440.6 L206.3,441.4 L200.9,442.1 L195.4,442.4 L190.0,442.5 L184.6,442.0 L179.4,441.0 L174.3,439.5 L169.5,437.4 L164.9,434.7 L160.7,431.5 L156.8,427.8 L153.2,423.8 L149.9,419.4 L146.8,414.9 L143.9,410.2 L141.2,405.6 L138.5,401.1 L135.7,396.8 L132.9,392.7 L129.9,388.9 L126.6,385.4 L123.1,382.1 L119.3,379.1 L115.2,376.2 L110.9,373.5 L106.4,370.8 L101.9,368.0 L97.2,365.1 L92.7,362.1 L88.3,358.8 L84.2,355.2 L80.5,351.3 L77.3,347.0 L74.6,342.5 L72.5,337.7 L70.9,332.7 L69.9,327.4 L69.5,322.1 L69.5,316.6 L69.8,311.1 L70.5,305.7 L71.3,300.3 L72.1,295.1 L72.9,289.9 L73.5,284.9 L73.9,280.0 L73.9,275.1 L73.5,270.4 L72.8,265.6 L71.8,260.8 L70.4,256.0 L68.8,251.1 L67.1,246.1 L65.4,241.0 L63.7,235.8 L62.3,230.5 L61.2,225.1 L60.5,219.8 L60.4,214.4 L60.8,209.1 L61.8,204.0 L63.5,199.0 L65.7,194.2 L68.5,189.6 L71.8,185.3 L75.4,181.2 L79.3,177.3 L83.3,173.6 L87.4,170.1 L91.4,166.6 L95.2,163.2 L98.8,159.7 L102.1,156.1 L105.2,152.3 L107.9,148.4 L110.3,144.2 L112.5,139.8 L114.5,135.1 L116.4,130.3 L118.3,125.3 L120.3,120.3 L122.4,115.2 L124.8,110.3 L127.5,105.6 L130.6,101.2 L134.1,97.1 L137.9,93.5 L142.2,90.4 L146.8,87.8 L151.7,85.7 L156.8,84.2 L162.1,83.1 L167.5,82.4 L173.0,82.0 L178.5,81.8 L183.8,81.7 L189.1,81.6 L194.2,81.4 L199.1,81.0 L204.0,80.3 L208.6,79.2 L213.2,77.8 L217.8,76.1 L222.3,74.0 L226.8,71.6 L231.4,69.1 L236.1,66.5 L240.9,63.9 L245.8,61.5 L250.9,59.4 L256.0,57.7 L261.2,56.4 L266.5,55.7 L271.8,55.7 L277.0,56.2 L282.1,57.4 L287.2,59.1 L292.1,61.4 L296.8,64.2 L301.3,67.2 L305.7,70.5 L309.9,73.9 L314.1,77.2 L318.2,80.5 L322.2,83.5 L326.3,86.3 L330.5,88.7 L334.8,90.8 L339.3,92.6 L343.9,94.0 L348.8,95.3 L353.8,96.3 L359.0,97.4 L364.3,98.4 L369.6,99.6 L374.9,101.0 L380.1,102.7 L385.1,104.8 L389.8,107.4 L394.2,110.4 L398.1,113.9 L401.6,117.8 L404.7,122.1 L407.2,126.8 L409.4,131.8 L411.1,137.0 L412.5,142.3 L413.7,147.6 L414.7,152.9 L415.7,158.1 L416.8,163.2 L418.0,168.0 L419.5,172.7 L421.2,177.2 L423.3,181.5 L425.7,185.7 L428.4,189.8 L431.4,193.9 L434.7,197.9 L438.0,202.1 L441.4,206.3 L444.7,210.7 L447.8,215.2 L450.5,220.0 L452.8,224.8 L454.6,229.9 L455.8,235.0 L456.4,240.2 L456.3,245.5 L455.6,250.8 L454.4,256.0 Z" fill="#FAEDD7"/><text x="256" y="178" text-anchor="middle" font-family="Georgia,'Times New Roman',serif" font-weight="bold" font-size="52" fill="#241E17" textLength="92" lengthAdjust="spacingAndGlyphs">The</text><text x="252" y="262" text-anchor="middle" font-family="Georgia,'Times New Roman',serif" font-weight="bold" font-size="98" fill="#241E17" textLength="204" lengthAdjust="spacingAndGlyphs">Vibe</text><text x="256" y="336" text-anchor="middle" font-family="Georgia,'Times New Roman',serif" font-weight="bold" font-size="74" fill="#241E17" textLength="290" lengthAdjust="spacingAndGlyphs">Upgrade</text><rect x="208" y="360" width="96" height="4" fill="#DD5F17"/><text x="256" y="392" text-anchor="middle" font-family="Helvetica,Arial,sans-serif" font-weight="bold" font-size="17" letter-spacing="1.5" fill="#241E17" textLength="126" lengthAdjust="spacingAndGlyphs">SMART FINDS</text><text x="256" y="414" text-anchor="middle" font-family="Helvetica,Arial,sans-serif" font-weight="bold" font-size="17" letter-spacing="1.5" fill="#241E17" textLength="126" lengthAdjust="spacingAndGlyphs">COZY SPACES</text><text x="256" y="436" text-anchor="middle" font-family="Helvetica,Arial,sans-serif" font-weight="bold" font-size="17" letter-spacing="1.5" fill="#241E17" textLength="126" lengthAdjust="spacingAndGlyphs">BETTER VIBES</text><g transform="translate(352,148) rotate(10)"><path d="M0,-26 Q5.72,-5.72 26,0 Q5.72,5.72 0,26 Q-5.72,5.72 -26,0 Q-5.72,-5.72 0,-26 Z" fill="#E2661C"/></g><g transform="translate(388,186) rotate(25)"><path d="M0,-16 Q3.52,-3.52 16,0 Q3.52,3.52 0,16 Q-3.52,3.52 -16,0 Q-3.52,-3.52 0,-16 Z" fill="#E2661C"/></g><g transform="translate(164,386) rotate(-12)"><path d="M0,-14 Q3.08,-3.08 14,0 Q3.08,3.08 0,14 Q-3.08,3.08 -14,0 Q-3.08,-3.08 0,-14 Z" fill="#E2661C"/></g><g transform="translate(348,386) rotate(18)"><path d="M0,-14 Q3.08,-3.08 14,0 Q3.08,3.08 0,14 Q-3.08,3.08 -14,0 Q-3.08,-3.08 0,-14 Z" fill="#E2661C"/></g></svg>