<svg xmlns="http://www.w3.org/2000/svg" viewBox="0 0 512 512" role="img" aria-label="The Vibe Upgrade — Smart Finds, Cozy Spaces, Better Vibes"><circle cx="256" cy="256" r="252" fill="#DD5F17"/><path d="M483.5,256.0 L485.3,262.0 L486.6,268.1 L487.3,274.2 L487.5,280.3 L487.0,286.4 L485.9,292.4 L484.1,298.3 L481.8,304.0 L478.9,309.5 L475.6,314.9 L472.1,320.0 L468.3,325.0 L464.5,329.8 L460.7,334.6 L457.0,339.3 L453.6,344.0 L450.4,348.7 L447.6,353.6 L445.1,358.6 L442.8,363.9 L440.8,369.3 L439.0,374.8 L437.3,380.6 L435.6,386.5 L433.8,392.4 L431.8,398.3 L429.5,404.2 L426.8,409.8 L423.8,415.2 L420.3,420.3 L416.3,424.9 L411.9,429.1 L407.0,432.8 L401.8,436.0 L396.2,438.7 L390.4,441.0 L384.4,442.8 L378.3,444.4 L372.3,445.7 L366.2,447.0 L360.3,448.2 L354.6,449.4 L349.0,450.9 L343.5,452.6 L338.3,454.6 L333.1,457.0 L328.1,459.6 L323.1,462.6 L318.1,465.8 L313.1,469.1 L308.0,472.5 L302.7,475.9 L297.3,479.0 L291.8,481.9 L286.1,484.4 L280.2,486.4 L274.2,487.9 L268.2,488.7 L262.1,488.8 L256.0,488.3 L249.9,487.2 L244.0,485.5 L238.1,483.3 L232.4,480.8 L226.8,478.0 L221.3,475.1 L215.9,472.2 L210.7,469.3 L205.4,466.7 L200.2,464.3 L194.9,462.2 L189.6,460.5 L184.1,459.1 L178.5,458.0 L172.7,457.1 L166.8,456.4 L160.7,455.7 L154.6,455.0 L148.4,454.1 L142.2,453.0 L136.2,451.5 L130.3,449.6 L124.6,447.2 L119.2,444.3 L114.2,440.9 L109.5,436.9 L105.3,432.4 L101.6,427.5 L98.2,422.3 L95.2,416.8 L92.5,411.1 L90.1,405.4 L87.8,399.6 L85.6,394.0 L83.4,388.5 L81.0,383.1 L78.5,378.0 L75.7,373.1 L72.6,368.4 L69.2,363.9 L65.5,359.4 L61.6,355.1 L57.5,350.7 L53.2,346.3 L49.0,341.7 L44.9,337.1 L40.9,332.2 L37.4,327.0 L34.2,321.7 L31.6,316.1 L29.5,310.4 L28.1,304.4 L27.4,298.4 L27.2,292.2 L27.7,286.1 L28.6,279.9 L30.0,273.8 L31.7,267.8 L33.5,261.8 L35.5,256.0 L37.4,250.3 L39.2,244.6 L40.7,239.1 L41.9,233.5 L42.8,227.9 L43.4,222.3 L43.6,216.6 L43.5,210.8 L43.3,204.9 L42.9,198.9 L42.5,192.8 L42.2,186.5 L42.2,180.3 L42.4,174.0 L43.1,167.8 L44.3,161.8 L46.1,155.9 L48.4,150.2 L51.3,144.9 L54.8,139.9 L58.8,135.2 L63.3,130.8 L68.1,126.8 L73.1,123.1 L78.3,119.7 L83.6,116.4 L88.8,113.2 L93.9,110.1 L98.8,106.8 L103.5,103.5 L107.9,100.0 L112.1,96.2 L116.1,92.2 L119.8,87.9 L123.5,83.3 L127.1,78.5 L130.7,73.6 L134.3,68.7 L138.2,63.8 L142.2,59.0 L146.6,54.4 L151.2,50.3 L156.1,46.6 L161.3,43.4 L166.8,40.7 L172.6,38.7 L178.6,37.3 L184.7,36.5 L190.9,36.2 L197.1,36.4 L203.4,36.9 L209.6,37.6 L215.7,38.5 L221.7,39.5 L227.6,40.3 L233.4,40.9 L239.1,41.2 L244.7,41.3 L250.4,41.0 L256.0,40.3 L261.7,39.3 L267.4,38.1 L273.3,36.7 L279.2,35.3 L285.2,33.9 L291.4,32.6 L297.6,31.7 L303.8,31.1 L310.0,31.1 L316.1,31.6 L322.1,32.7 L328.0,34.4 L333.6,36.8 L339.0,39.7 L344.1,43.2 L349.0,47.1 L353.6,51.4 L358.0,55.8 L362.2,60.4 L366.2,65.0 L370.2,69.6 L374.2,73.9 L378.3,78.0 L382.5,81.9 L386.9,85.4 L391.5,88.7 L396.3,91.7 L401.3,94.6 L406.6,97.3 L412.0,100.0 L417.5,102.7 L423.0,105.6 L428.5,108.7 L433.8,112.0 L438.8,115.7 L443.5,119.8 L447.7,124.3 L451.4,129.1 L454.6,134.3 L457.2,139.9 L459.2,145.7 L460.7,151.7 L461.8,157.8 L462.5,164.1 L462.9,170.3 L463.1,176.5 L463.2,182.6 L463.4,188.6 L463.8,194.5 L464.3,200.2 L465.2,205.8 L466.3,211.3 L467.9,216.7 L469.7,222.2 L471.8,227.6 L474.2,233.1 L476.6,238.6 L479.1,244.3 L481.4,250.1 L483.5,256.0 Z" fill="#F0913A"/><path d="M472.0,256.0 L472.7,261.7 L472.7,267.4 L472.1,273.0 L470.8,278.6 L469.0,284.0 L466.7,289.4 L463.9,294.5 L460.8,299.5 L457.6,304.4 L454.2,309.1 L450.9,313.7 L447.8,318.3 L444.8,322.9 L442.2,327.5 L439.9,332.2 L437.9,337.0 L436.2,342.0 L434.8,347.1 L433.7,352.5 L432.6,358.0 L431.6,363.6 L430.4,369.3 L429.2,375.0 L427.6,380.7 L425.7,386.2 L423.3,391.5 L420.5,396.5 L417.2,401.1 L413.4,405.4 L409.1,409.1 L404.5,412.4 L399.4,415.3 L394.1,417.7 L388.6,419.8 L383.0,421.6 L377.4,423.1 L371.9,424.6 L366.4,426.0 L361.1,427.5 L356.0,429.2 L351.1,431.1 L346.3,433.3 L341.8,435.8 L337.3,438.7 L333.0,441.8 L328.6,445.2 L324.3,448.8 L319.8,452.5 L315.3,456.1 L310.6,459.6 L305.7,462.8 L300.6,465.7 L295.3,468.1 L289.9,469.9 L284.3,471.1 L278.7,471.7 L273.0,471.6 L267.3,471.0 L261.6,469.8 L256.0,468.1 L250.5,466.0 L245.1,463.7 L239.8,461.3 L234.7,458.8 L229.6,456.4 L224.6,454.2 L219.6,452.3 L214.6,450.8 L209.5,449.5 L204.4,448.6 L199.1,448.1 L193.7,447.8 L188.1,447.6 L182.5,447.6 L176.7,447.5 L170.8,447.3 L165.0,446.8 L159.2,446.0 L153.5,444.8 L148.0,443.1 L142.7,440.8 L137.8,438.0 L133.2,434.6 L129.0,430.8 L125.2,426.4 L121.8,421.8 L118.7,416.8 L115.9,411.6 L113.3,406.4 L110.9,401.1 L108.5,395.9 L106.2,390.9 L103.7,386.1 L101.0,381.5 L98.1,377.2 L94.9,373.0 L91.4,369.1 L87.7,365.3 L83.6,361.6 L79.4,358.0 L75.0,354.2 L70.7,350.4 L66.4,346.5 L62.2,342.3 L58.4,337.8 L55.0,333.2 L52.1,328.2 L49.7,323.0 L48.0,317.6 L46.8,312.0 L46.3,306.3 L46.3,300.6 L46.9,294.8 L47.8,289.0 L49.1,283.2 L50.5,277.6 L52.1,272.0 L53.6,266.6 L54.9,261.3 L56.0,256.0 L56.8,250.8 L57.3,245.6 L57.4,240.4 L57.1,235.1 L56.6,229.7 L55.8,224.3 L54.9,218.7 L53.9,213.0 L53.1,207.3 L52.4,201.4 L52.1,195.6 L52.1,189.8 L52.7,184.0 L53.8,178.4 L55.5,173.0 L57.9,167.8 L60.8,162.9 L64.2,158.3 L68.1,154.0 L72.3,150.0 L76.9,146.2 L81.6,142.7 L86.3,139.4 L91.0,136.1 L95.6,132.9 L100.0,129.7 L104.2,126.3 L108.0,122.8 L111.6,119.0 L115.0,115.0 L118.1,110.7 L121.1,106.2 L124.0,101.4 L126.8,96.5 L129.8,91.5 L132.9,86.6 L136.2,81.7 L139.8,77.1 L143.7,72.8 L148.0,68.9 L152.6,65.5 L157.5,62.7 L162.7,60.4 L168.1,58.7 L173.8,57.5 L179.6,56.9 L185.4,56.7 L191.3,56.8 L197.1,57.2 L202.9,57.8 L208.5,58.3 L214.1,58.8 L219.5,59.0 L224.8,59.0 L230.0,58.7 L235.2,58.0 L240.3,56.9 L245.5,55.6 L250.7,53.9 L256.0,52.1 L261.4,50.2 L266.9,48.3 L272.5,46.5 L278.2,45.1 L283.9,44.0 L289.7,43.4 L295.4,43.3 L301.1,43.8 L306.7,45.0 L312.0,46.8 L317.3,49.2 L322.2,52.1 L327.0,55.5 L331.5,59.2 L335.9,63.2 L340.0,67.3 L344.1,71.4 L348.0,75.4 L352.0,79.2 L356.0,82.8 L360.1,86.1 L364.4,89.1 L368.9,91.8 L373.5,94.2 L378.5,96.4 L383.6,98.5 L388.9,100.5 L394.2,102.5 L399.7,104.6 L405.0,107.0 L410.3,109.6 L415.3,112.6 L420.0,115.9 L424.3,119.7 L428.1,123.9 L431.5,128.5 L434.3,133.5 L436.5,138.8 L438.3,144.3 L439.7,150.0 L440.6,155.8 L441.3,161.6 L441.8,167.4 L442.3,173.1 L442.8,178.6 L443.4,184.1 L444.2,189.3 L445.4,194.5 L446.8,199.5 L448.6,204.4 L450.8,209.2 L453.2,214.1 L455.9,219.0 L458.7,223.9 L461.5,228.9 L464.3,234.1 L466.8,239.4 L469.0,244.8 L470.8,250.4 L472.0,256.0 Z" fill="#F6B04F"/><path d="M460.5,256.0 L459.5,261.3 L458.0,266.6 L456.0,271.7 L453.6,276.8 L450.9,281.7 L448.1,286.4 L445.2,291.1 L442.4,295.6 L439.8,300.1 L437.5,304.6 L435.5,309.2 L433.8,313.8 L432.5,318.5 L431.6,323.4 L430.8,328.4 L430.3,333.6 L429.9,339.0 L429.5,344.4 L429.0,349.9 L428.3,355.5 L427.2,360.9 L425.8,366.3 L423.9,371.4 L421.5,376.3 L418.6,380.8 L415.2,384.9 L411.3,388.7 L407.0,392.0 L402.3,394.9 L397.4,397.4 L392.3,399.6 L387.1,401.6 L381.8,403.3 L376.7,405.1 L371.7,406.8 L366.9,408.6 L362.3,410.6 L357.9,412.9 L353.7,415.5 L349.7,418.4 L345.9,421.6 L342.1,425.1 L338.4,428.8 L334.6,432.6 L330.8,436.6 L326.8,440.4 L322.6,444.1 L318.2,447.5 L313.6,450.6 L308.8,453.1 L303.8,455.1 L298.6,456.5 L293.3,457.3 L287.9,457.4 L282.5,457.0 L277.0,456.1 L271.6,454.7 L266.3,453.0 L261.1,451.1 L256.0,449.1 L251.0,447.1 L246.1,445.3 L241.2,443.7 L236.4,442.4 L231.6,441.4 L226.7,440.8 L221.8,440.6 L216.7,440.7 L211.6,441.0 L206.3,441.5 L200.9,442.0 L195.4,442.5 L189.8,442.9 L184.3,442.9 L178.7,442.6 L173.3,441.8 L168.0,440.5 L163.0,438.6 L158.2,436.1 L153.7,433.1 L149.6,429.6 L145.8,425.6 L142.4,421.3 L139.2,416.7 L136.3,412.0 L133.6,407.1 L131.0,402.3 L128.5,397.6 L125.9,393.1 L123.1,388.9 L120.2,384.9 L117.0,381.1 L113.6,377.6 L109.9,374.3 L105.9,371.2 L101.6,368.2 L97.2,365.1 L92.7,362.1 L88.2,358.8 L83.7,355.5 L79.5,351.8 L75.6,347.9 L72.1,343.7 L69.1,339.2 L66.6,334.4 L64.7,329.4 L63.5,324.2 L62.7,318.8 L62.6,313.3 L62.8,307.8 L63.5,302.2 L64.4,296.7 L65.5,291.3 L66.6,286.0 L67.6,280.8 L68.4,275.7 L68.9,270.7 L69.2,265.8 L69.0,260.9 L68.5,256.0 L67.7,251.1 L66.5,246.1 L65.2,241.0 L63.7,235.8 L62.2,230.5 L60.9,225.1 L59.8,219.6 L59.0,214.1 L58.7,208.6 L58.9,203.2 L59.7,197.8 L61.0,192.7 L63.0,187.7 L65.6,182.9 L68.7,178.4 L72.2,174.2 L76.1,170.2 L80.2,166.4 L84.5,162.9 L88.8,159.5 L93.0,156.1 L97.0,152.8 L100.9,149.4 L104.4,145.8 L107.6,142.2 L110.6,138.2 L113.2,134.1 L115.7,129.7 L118.0,125.0 L120.2,120.2 L122.4,115.3 L124.8,110.2 L127.3,105.3 L130.0,100.4 L133.1,95.8 L136.5,91.5 L140.2,87.6 L144.4,84.1 L148.9,81.2 L153.7,78.9 L158.8,77.1 L164.2,75.8 L169.6,75.0 L175.2,74.5 L180.8,74.4 L186.3,74.5 L191.8,74.6 L197.1,74.7 L202.3,74.7 L207.4,74.5 L212.3,74.0 L217.1,73.1 L221.9,71.9 L226.6,70.3 L231.3,68.4 L236.1,66.2 L240.9,63.9 L245.8,61.5 L250.8,59.2 L256.0,57.1 L261.3,55.3 L266.6,53.8 L272.0,52.9 L277.4,52.5 L282.8,52.8 L288.0,53.7 L293.2,55.2 L298.2,57.2 L303.1,59.8 L307.8,62.8 L312.2,66.2 L316.5,69.7 L320.7,73.3 L324.7,76.9 L328.7,80.4 L332.7,83.7 L336.8,86.6 L340.9,89.3 L345.2,91.6 L349.7,93.6 L354.4,95.4 L359.3,96.9 L364.4,98.3 L369.6,99.6 L375.0,101.0 L380.3,102.5 L385.6,104.2 L390.8,106.3 L395.7,108.8 L400.3,111.7 L404.5,115.0 L408.3,118.8 L411.7,123.0 L414.5,127.6 L416.9,132.6 L418.8,137.7 L420.3,143.1 L421.4,148.6 L422.4,154.0 L423.2,159.5 L424.0,164.8 L424.9,170.0 L425.9,175.0 L427.2,179.8 L428.8,184.4 L430.7,188.9 L433.0,193.3 L435.6,197.7 L438.4,202.0 L441.5,206.3 L444.7,210.7 L447.8,215.2 L450.9,219.9 L453.7,224.7 L456.2,229.6 L458.2,234.7 L459.7,240.0 L460.6,245.3 L460.9,250.6 L460.5,256.0 Z" fill="#F2ABA0"/><path d="M443.2,256.0 L440.9,260.8 L438.5,265.6 L435.8,270.2 L433.1,274.6 L430.5,279.0 L428.2,283.3 L426.2,287.5 L424.5,291.8 L423.2,296.2 L422.4,300.6 L422.0,305.2 L421.9,309.9 L422.1,314.8 L422.4,319.9 L422.8,325.1 L423.1,330.4 L423.1,335.7 L422.9,341.0 L422.2,346.2 L421.0,351.3 L419.3,356.1 L417.0,360.6 L414.1,364.7 L410.7,368.4 L406.8,371.7 L402.4,374.6 L397.8,377.1 L392.9,379.3 L388.0,381.2 L383.0,383.0 L378.1,384.7 L373.4,386.4 L368.9,388.2 L364.7,390.2 L360.8,392.5 L357.1,395.2 L353.7,398.2 L350.5,401.5 L347.4,405.2 L344.4,409.2 L341.4,413.3 L338.3,417.5 L335.1,421.8 L331.6,425.8 L327.9,429.6 L324.0,433.1 L319.7,436.0 L315.3,438.4 L310.5,440.1 L305.6,441.2 L300.6,441.6 L295.4,441.4 L290.2,440.7 L285.1,439.5 L279.9,437.9 L274.9,436.1 L270.0,434.3 L265.2,432.5 L260.6,430.8 L256.0,429.4 L251.5,428.4 L247.0,427.8 L242.5,427.6 L237.9,427.8 L233.3,428.5 L228.5,429.4 L223.6,430.6 L218.6,431.8 L213.5,433.1 L208.3,434.1 L203.0,434.9 L197.7,435.3 L192.5,435.2 L187.5,434.6 L182.6,433.3 L177.9,431.4 L173.6,428.8 L169.5,425.7 L165.8,422.1 L162.4,418.1 L159.3,413.7 L156.5,409.2 L153.8,404.6 L151.3,400.1 L148.8,395.7 L146.3,391.5 L143.6,387.6 L140.7,384.0 L137.6,380.8 L134.2,377.8 L130.4,375.2 L126.4,372.7 L122.0,370.4 L117.5,368.2 L112.8,365.9 L108.1,363.5 L103.4,360.9 L98.9,358.0 L94.7,354.8 L91.0,351.3 L87.7,347.4 L84.9,343.2 L82.8,338.6 L81.3,333.8 L80.4,328.7 L80.1,323.5 L80.2,318.2 L80.8,312.9 L81.6,307.7 L82.5,302.5 L83.5,297.4 L84.4,292.5 L85.0,287.7 L85.4,283.0 L85.4,278.5 L84.9,274.0 L84.0,269.5 L82.7,265.1 L81.1,260.6 L79.2,256.0 L77.1,251.3 L75.0,246.5 L72.9,241.6 L71.1,236.6 L69.7,231.5 L68.7,226.3 L68.3,221.2 L68.4,216.1 L69.3,211.2 L70.8,206.4 L73.0,201.8 L75.7,197.4 L79.0,193.3 L82.6,189.4 L86.5,185.8 L90.5,182.3 L94.6,179.0 L98.6,175.8 L102.3,172.6 L105.8,169.3 L108.9,165.9 L111.7,162.3 L114.1,158.5 L116.2,154.4 L118.0,150.1 L119.6,145.5 L121.0,140.7 L122.4,135.7 L123.9,130.7 L125.6,125.6 L127.5,120.6 L129.8,115.9 L132.5,111.4 L135.6,107.4 L139.2,103.8 L143.2,100.7 L147.5,98.2 L152.3,96.2 L157.2,94.8 L162.4,93.9 L167.7,93.4 L173.1,93.2 L178.4,93.2 L183.6,93.3 L188.6,93.3 L193.5,93.2 L198.2,92.9 L202.8,92.2 L207.1,91.1 L211.4,89.6 L215.6,87.7 L219.7,85.4 L223.9,82.8 L228.1,79.9 L232.4,77.0 L236.9,74.1 L241.5,71.4 L246.2,69.0 L251.0,66.9 L256.0,65.4 L261.0,64.5 L266.0,64.3 L271.1,64.7 L276.0,65.8 L280.8,67.6 L285.5,69.9 L290.0,72.7 L294.3,75.8 L298.5,79.1 L302.5,82.5 L306.4,85.9 L310.2,89.1 L314.0,92.1 L317.9,94.7 L321.9,97.0 L326.0,98.8 L330.3,100.3 L334.8,101.4 L339.5,102.2 L344.4,102.8 L349.5,103.4 L354.7,104.0 L360.0,104.7 L365.3,105.6 L370.4,106.9 L375.4,108.6 L380.0,110.8 L384.3,113.5 L388.2,116.7 L391.6,120.4 L394.5,124.6 L396.9,129.2 L398.8,134.0 L400.4,139.1 L401.6,144.3 L402.5,149.5 L403.4,154.7 L404.2,159.8 L405.1,164.6 L406.2,169.3 L407.6,173.7 L409.3,177.9 L411.4,181.9 L413.9,185.7 L416.7,189.4 L419.9,193.1 L423.4,196.7 L426.9,200.5 L430.6,204.3 L434.1,208.3 L437.5,212.4 L440.4,216.8 L443.0,221.4 L444.9,226.1 L446.2,231.0 L446.9,235.9 L446.9,241.0 L446.2,246.0 L444.9,251.1 L443.2,256.0 Z" fill="#FAEDD7"/><text x="256" y="188" text-anchor="middle" font-family="Georgia,'Times New Roman',serif" font-weight="bold" font-size="56" fill="#241E17">The</text><text x="250" y="277" text-anchor="middle" font-family="Georgia,'Times New Roman',serif" font-weight="bold" font-size="104" fill="#241E17">Vibe</text><text x="256" y="358" text-anchor="middle" font-family="Georgia,'Times New Roman',serif" font-weight="bold" font-size="82" fill="#241E17">Upgrade</text><rect x="266" y="376" width="96" height="4" fill="#DD5F17"/><text x="222" y="404" font-family="Helvetica,Arial,sans-serif" font-weight="bold" font-size="22" letter-spacing="2" fill="#241E17">SMART FINDS</text><text x="222" y="430" font-family="Helvetica,Arial,sans-serif" font-weight="bold" font-size="22" letter-spacing="2" fill="#241E17">COZY SPACES</text><text x="222" y="456" font-family="Helvetica,Arial,sans-serif" font-weight="bold" font-size="22" letter-spacing="2" fill="#241E17">BETTER VIBES</text><g transform="translate(352,148) rotate(10)"><path d="M0,-26 Q5.72,-5.72 26,0 Q5.72,5.72 0,26 Q-5.72,5.72 -26,0 Q-5.72,-5.72 0,-26 Z" fill="#E2661C"/></g><g transform="translate(388,186) rotate(25)"><path d="M0,-16 Q3.52,-3.52 16,0 Q3.52,3.52 0,16 Q-3.52,3.52 -16,0 Q-3.52,-3.52 0,-16 Z" fill="#E2661C"/></g><g transform="translate(168,396) rotate(-12)"><path d="M0,-15 Q3.3,-3.3 15,0 Q3.3,3.3 0,15 Q-3.3,3.3 -15,0 Q-3.3,-3.3 0,-15 Z" fill="#E2661C"/></g></svg>